<svg width="50" height="50" viewBox="0 0 50 50" fill="none" xmlns="http://www.w3.org/2000/svg">
<path d="M24.9999 35.4182C24.4474 35.4181 23.9176 35.1985 23.527 34.8078L15.1936 26.4744C14.9947 26.2822 14.8359 26.0524 14.7268 25.7982C14.6176 25.544 14.5601 25.2706 14.5577 24.994C14.5553 24.7174 14.608 24.4431 14.7128 24.187C14.8175 23.931 14.9722 23.6984 15.1678 23.5028C15.3634 23.3072 15.596 23.1525 15.8521 23.0477C16.1081 22.943 16.3824 22.8903 16.6591 22.8927C16.9357 22.8951 17.2091 22.9525 17.4632 23.0617C17.7174 23.1709 17.9473 23.3296 18.1395 23.5286L24.9999 30.389L31.8603 23.5286C32.2532 23.1491 32.7795 22.9391 33.3257 22.9439C33.872 22.9486 34.3945 23.1677 34.7808 23.554C35.167 23.9402 35.3861 24.4628 35.3909 25.009C35.3956 25.5553 35.1856 26.0815 34.8061 26.4744L26.4728 34.8078C26.0822 35.1985 25.5524 35.4181 24.9999 35.4182Z" fill="#195FC3"/>
<path d="M24.9999 27.0842C24.4474 27.0841 23.9176 26.8645 23.527 26.4738L15.1936 18.1404C14.9947 17.9483 14.8359 17.7184 14.7268 17.4642C14.6176 17.21 14.5601 16.9367 14.5577 16.66C14.5553 16.3834 14.608 16.1091 14.7128 15.853C14.8175 15.597 14.9722 15.3644 15.1678 15.1688C15.3634 14.9732 15.596 14.8185 15.8521 14.7137C16.1081 14.609 16.3824 14.5563 16.6591 14.5587C16.9357 14.5611 17.2091 14.6185 17.4632 14.7277C17.7174 14.8369 17.9473 14.9956 18.1395 15.1946L24.9999 22.055L31.8603 15.1946C32.0525 14.9956 32.2824 14.8369 32.5365 14.7277C32.7907 14.6185 33.0641 14.5611 33.3407 14.5587C33.6173 14.5563 33.8917 14.609 34.1477 14.7137C34.4037 14.8185 34.6363 14.9732 34.832 15.1688C35.0276 15.3644 35.1823 15.597 35.287 15.853C35.3918 16.1091 35.4445 16.3834 35.4421 16.66C35.4397 16.9367 35.3822 17.21 35.273 17.4642C35.1638 17.7184 35.0051 17.9483 34.8061 18.1404L26.4728 26.4738C26.0822 26.8645 25.5524 27.0841 24.9999 27.0842Z" fill="#195FC3"/>
</svg>
