<svg width="26" height="26" viewBox="0 0 26 26" fill="none" xmlns="http://www.w3.org/2000/svg">
<g clip-path="url(#clip0_60_605)">
<path d="M12.9557 15.6145C14.4424 15.6145 15.6477 14.4092 15.6477 12.9225C15.6477 11.4357 14.4424 10.2305 12.9557 10.2305C11.4689 10.2305 10.2637 11.4357 10.2637 12.9225C10.2637 14.4092 11.4689 15.6145 12.9557 15.6145Z" stroke="#195FC3" stroke-width="2" stroke-linecap="round" stroke-linejoin="round"/>
<path d="M23.7236 12.9211C23.7236 12.9211 19.9548 18.3052 12.9555 18.3052C5.95632 18.3052 2.1875 12.9211 2.1875 12.9211C2.1875 12.9211 5.95632 7.53711 12.9555 7.53711C19.9548 7.53711 23.7236 12.9211 23.7236 12.9211Z" stroke="#195FC3" stroke-width="2" stroke-linecap="round" stroke-linejoin="round"/>
<path d="M-193.791 -267.047H183.091V109.835H-193.791V-267.047Z" stroke="#195FC3" stroke-width="2" stroke-linecap="round" stroke-linejoin="round"/>
</g>
<defs>
<clipPath id="clip0_60_605">
<rect width="25.8433" height="25.8433" fill="white" transform="translate(0.0332031)"/>
</clipPath>
</defs>
</svg>
