<svg width="50" height="50" viewBox="0 0 50 50" fill="none" xmlns="http://www.w3.org/2000/svg">
<path d="M25.0001 14.5818C25.5526 14.5819 26.0824 14.8015 26.473 15.1922L34.8064 23.5256C35.0053 23.7178 35.1641 23.9476 35.2732 24.2018C35.3824 24.456 35.4399 24.7294 35.4423 25.006C35.4447 25.2826 35.392 25.5569 35.2872 25.813C35.1825 26.069 35.0278 26.3016 34.8322 26.4972C34.6366 26.6928 34.404 26.8475 34.1479 26.9523C33.8919 27.057 33.6176 27.1097 33.3409 27.1073C33.0643 27.1049 32.7909 27.0475 32.5368 26.9383C32.2826 26.8291 32.0527 26.6704 31.8605 26.4714L25.0001 19.611L18.1397 26.4714C17.7468 26.8509 17.2205 27.0609 16.6743 27.0561C16.128 27.0514 15.6055 26.8323 15.2192 26.446C14.833 26.0598 14.6139 25.5372 14.6091 24.991C14.6044 24.4447 14.8144 23.9185 15.1939 23.5256L23.5272 15.1922C23.9178 14.8015 24.4476 14.5819 25.0001 14.5818Z" fill="#195FC3"/>
<path d="M25.0001 22.9158C25.5526 22.9159 26.0824 23.1355 26.473 23.5262L34.8064 31.8596C35.0053 32.0517 35.1641 32.2816 35.2732 32.5358C35.3824 32.79 35.4399 33.0633 35.4423 33.34C35.4447 33.6166 35.392 33.8909 35.2872 34.147C35.1825 34.403 35.0278 34.6356 34.8322 34.8312C34.6366 35.0268 34.404 35.1815 34.1479 35.2863C33.8919 35.391 33.6176 35.4437 33.3409 35.4413C33.0643 35.4389 32.7909 35.3815 32.5368 35.2723C32.2826 35.1631 32.0527 35.0044 31.8605 34.8054L25.0001 27.945L18.1397 34.8054C17.9475 35.0044 17.7176 35.1631 17.4635 35.2723C17.2093 35.3815 16.9359 35.4389 16.6593 35.4413C16.3827 35.4437 16.1083 35.391 15.8523 35.2863C15.5963 35.1815 15.3637 35.0268 15.168 34.8312C14.9724 34.6356 14.8177 34.403 14.713 34.147C14.6082 33.8909 14.5555 33.6166 14.5579 33.34C14.5603 33.0633 14.6178 32.79 14.727 32.5358C14.8362 32.2816 14.9949 32.0517 15.1939 31.8596L23.5272 23.5262C23.9178 23.1355 24.4476 22.9159 25.0001 22.9158Z" fill="#195FC3"/>
</svg>
