<svg width="79" height="25" viewBox="0 0 79 25" fill="none" xmlns="http://www.w3.org/2000/svg">
<path d="M11.136 7.832L7.04 19H4.32L0.224 7.832H2.624L5.696 16.712L8.752 7.832H11.136ZM20.719 14.376C20.719 14.696 20.6977 14.984 20.655 15.24H14.175C14.2283 15.88 14.4523 16.3813 14.847 16.744C15.2417 17.1067 15.727 17.288 16.303 17.288C17.135 17.288 17.727 16.9307 18.079 16.216H20.495C20.239 17.0693 19.7483 17.7733 19.023 18.328C18.2977 18.872 17.407 19.144 16.351 19.144C15.4977 19.144 14.7297 18.9573 14.047 18.584C13.375 18.2 12.847 17.6613 12.463 16.968C12.0897 16.2747 11.903 15.4747 11.903 14.568C11.903 13.6507 12.0897 12.8453 12.463 12.152C12.8363 11.4587 13.359 10.9253 14.031 10.552C14.703 10.1787 15.4763 9.992 16.351 9.992C17.1937 9.992 17.9457 10.1733 18.607 10.536C19.279 10.8987 19.7963 11.416 20.159 12.088C20.5323 12.7493 20.719 13.512 20.719 14.376ZM18.399 13.736C18.3883 13.16 18.1803 12.7013 17.775 12.36C17.3697 12.008 16.8737 11.832 16.287 11.832C15.7323 11.832 15.263 12.0027 14.879 12.344C14.5057 12.6747 14.2763 13.1387 14.191 13.736H18.399ZM24.594 11.512C24.882 11.0427 25.2553 10.6747 25.714 10.408C26.1833 10.1413 26.7167 10.008 27.314 10.008V12.36H26.722C26.018 12.36 25.4847 12.5253 25.122 12.856C24.77 13.1867 24.594 13.7627 24.594 14.584V19H22.354V10.136H24.594V11.512ZM29.9588 9.08C29.5641 9.08 29.2334 8.95733 28.9668 8.712C28.7108 8.456 28.5828 8.14133 28.5828 7.768C28.5828 7.39467 28.7108 7.08533 28.9668 6.84C29.2334 6.584 29.5641 6.456 29.9588 6.456C30.3534 6.456 30.6788 6.584 30.9348 6.84C31.2014 7.08533 31.3348 7.39467 31.3348 7.768C31.3348 8.14133 31.2014 8.456 30.9348 8.712C30.6788 8.95733 30.3534 9.08 29.9588 9.08ZM31.0628 10.136V19H28.8228V10.136H31.0628ZM37.3399 11.976H35.7879V19H33.5159V11.976H32.5079V10.136H33.5159V9.688C33.5159 8.6 33.8252 7.8 34.4439 7.288C35.0625 6.776 35.9959 6.536 37.2439 6.568V8.456C36.6999 8.44533 36.3212 8.536 36.1079 8.728C35.8945 8.92 35.7879 9.26667 35.7879 9.768V10.136H37.3399V11.976ZM47.2715 10.136L41.7835 23.192H39.3995L41.3195 18.776L37.7675 10.136H40.2795L42.5675 16.328L44.8875 10.136H47.2715Z" fill="#195FC3"/>
<path d="M0 20.6H39.3797V21.4H0V20.6ZM43.675 20.6H47.3675V21.4H43.675V20.6Z" fill="#195FC3"/>
<g clip-path="url(#clip0_41_4097)">
<path d="M66.5002 15.1048C67.9384 15.1048 69.1043 13.9389 69.1043 12.5007C69.1043 11.0624 67.9384 9.89648 66.5002 9.89648C65.0619 9.89648 63.896 11.0624 63.896 12.5007C63.896 13.9389 65.0619 15.1048 66.5002 15.1048Z" stroke="#195FC3" stroke-width="2" stroke-linecap="round" stroke-linejoin="round"/>
<path d="M76.9168 12.4993C76.9168 12.4993 73.271 17.7077 66.5002 17.7077C59.7293 17.7077 56.0835 12.4993 56.0835 12.4993C56.0835 12.4993 59.7293 7.29102 66.5002 7.29102C73.271 7.29102 76.9168 12.4993 76.9168 12.4993Z" stroke="#195FC3" stroke-width="2" stroke-linecap="round" stroke-linejoin="round"/>
<path d="M-133.5 -258.334H231.083V106.249H-133.5V-258.334Z" stroke="#195FC3" stroke-width="2" stroke-linecap="round" stroke-linejoin="round"/>
</g>
<defs>
<clipPath id="clip0_41_4097">
<rect width="25" height="25" fill="white" transform="translate(54)"/>
</clipPath>
</defs>
</svg>
