<svg xmlns="http://www.w3.org/2000/svg" xmlns:xlink="http://www.w3.org/1999/xlink" width="444.674" height="127.044" viewBox="0 0 444.674 127.044">
  <defs>
    <linearGradient id="linear-gradient" x1="0.005" y1="0.462" x2="0.61" y2="0.465" gradientUnits="objectBoundingBox">
      <stop offset="0" stop-color="#184caa"/>
      <stop offset="1" stop-color="#0c2655"/>
    </linearGradient>
    <linearGradient id="linear-gradient-2" x1="0.005" y1="0.538" x2="0.61" y2="0.535" xlink:href="#linear-gradient"/>
  </defs>
  <g id="Group_4868" data-name="Group 4868" transform="translate(-1069.635 -716.328)">
    <g id="Group_4864" data-name="Group 4864" transform="translate(1164.559 753.829)">
      <path id="Path_73401" data-name="Path 73401" d="M184.614,122.121l25.115-30.459a6.384,6.384,0,0,0,1.336-3.741V79.372a4.789,4.789,0,0,0-4.809-4.809H162.036a4.789,4.789,0,0,0-4.809,4.809V90.058a4.789,4.789,0,0,0,4.809,4.809h20.306l-24.848,30.327a5.6,5.6,0,0,0-1.336,3.741v8.546a4.677,4.677,0,0,0,4.675,4.809h46.623a4.789,4.789,0,0,0,4.809-4.809V126.8a4.762,4.762,0,0,0-4.809-4.675Zm88.3-47.56a4.762,4.762,0,0,0-4.675,4.809v31.661c0,7.615-4.542,11.756-10.821,11.756-6.011,0-10.821-3.874-10.821-11.756V79.372a4.789,4.789,0,0,0-4.81-4.809H229.636a4.789,4.789,0,0,0-4.809,4.809V116.91c0,13.76,8.015,26.985,24.848,26.985,8.816,0,14.695-3.34,18.569-7.751v2.541a3.566,3.566,0,0,0,3.474,3.607h13.359a4.789,4.789,0,0,0,4.809-4.809V79.372a4.789,4.789,0,0,0-4.809-4.809Zm71.871-1.6c-8.817,0-14.695,3.34-18.437,7.751v-2.54a3.592,3.592,0,0,0-3.607-3.607H309.387a4.789,4.789,0,0,0-4.809,4.809v58.11a4.789,4.789,0,0,0,4.809,4.809h12.156a4.789,4.789,0,0,0,4.809-4.809V105.823c0-7.615,4.408-11.622,10.821-11.622,6.011,0,10.821,3.741,10.821,11.622v31.659a4.762,4.762,0,0,0,4.675,4.809h12.29a4.762,4.762,0,0,0,4.676-4.809V99.945c0-13.626-7.881-26.985-24.847-26.985Zm87.1,5.21V81.24c-4.008-4.94-10.019-8.281-19.1-8.281-21.107,0-32.463,17.767-32.463,35.535,0,17.634,11.355,35.4,32.463,35.4,9.084,0,15.1-3.34,19.1-8.282v3.072a3.592,3.592,0,0,0,3.607,3.607h13.359a4.789,4.789,0,0,0,4.81-4.811V79.372a4.789,4.789,0,0,0-4.81-4.809H435.5a3.592,3.592,0,0,0-3.607,3.607ZM416.66,122.921c-8.951,0-14.428-6.145-14.428-14.428,0-8.416,5.477-14.561,14.428-14.561,8.149,0,14.561,5.477,14.561,14.561,0,8.952-6.413,14.429-14.561,14.429Z" transform="translate(-103.915 -72.594)" fill="#184caa"/>
      <g id="Group_4859" data-name="Group 4859" transform="translate(0 0)">
        <rect id="Rectangle_3405" data-name="Rectangle 3405" width="59.628" height="22.808" rx="6" transform="translate(0 70.745) rotate(-90)" fill="url(#linear-gradient)"/>
        <path id="Path_73373" data-name="Path 73373" d="M20.952,24.046H7.922c-2.964,0-6.515.515-7.859,5.9L0,8.278c.059-7.114,3.582-8,7.922-8L41.9,0c4.34,0,4.776,4.35.637,8.278L28.415,21.522a12.971,12.971,0,0,1-7.463,2.523Z" transform="translate(0 0)" fill="#184caa"/>
      </g>
    </g>
    <path id="Path_73407" data-name="Path 73407" d="M3.793,0H89.007a4.515,4.515,0,0,1,4.515,4.515V18.293a4.515,4.515,0,0,1-4.515,4.515l-64.9-.118a11.983,11.983,0,0,1-8.79-3.524l-14.1-12.9C-1.741,2.559,1.3,0,3.793,0Z" transform="translate(1092.547 733.115) rotate(90)" fill="url(#linear-gradient-2)"/>
    <path id="Path_73407-2" data-name="Path 73407" d="M-22419.4-22394.27c.52-11.766,4.156-33.773,20.684-49.965,11.172-10.98,26.082-16.93,44.551-17.727,1.879-.07,6.078-.5,6.109,4.359l-.2,7.82-.125,6.094c-.039,4.2-3.488,4.227-5.371,4.328-12.27.586-22.133,4.34-29.168,11.242-10.066,9.863-12.785,24.434-13.508,33.211-.164,2.055-.578,4.539-4.16,5.137,0,0-11.289-.012-13.273.012S-22419.547-22390.59-22419.4-22394.27Z" transform="translate(23489.037 23216.42)" fill="#184caa"/>
    <circle id="Ellipse_17" data-name="Ellipse 17" cx="16.065" cy="16.065" r="16.065" transform="translate(1160.013 716.328)" fill="#dc4241"/>
    <path id="Path_73408" data-name="Path 73408" d="M29.077,24.046H16.047c-2.964,0-9.427-.47-10.768,4.912C-9.774-.806,11.707.277,16.047.277L50.024,0c4.34,0,4.776,4.35.637,8.278L36.54,21.522A12.971,12.971,0,0,1,29.077,24.046Z" transform="matrix(0.719, 0.695, -0.695, 0.719, 1113.781, 785.345)" fill="#184caa"/>
  </g>
</svg>
